<mxfile host="app.diagrams.net" modified="2024-07-15T07:48:35.485Z" agent="Mozilla/5.0 (Windows NT 10.0; Win64; x64) AppleWebKit/537.36 (KHTML, like Gecko) Chrome/126.0.0.0 Safari/537.36 Edg/126.0.0.0" etag="7cpVJ3ljkZWVdvBuj43W" version="24.6.5" type="github">
  <diagram id="C5RBs43oDa-KdzZeNtuy" name="Page-1">
    <mxGraphModel dx="1209" dy="586" grid="1" gridSize="10" guides="1" tooltips="1" connect="1" arrows="1" fold="1" page="1" pageScale="1" pageWidth="827" pageHeight="1169" math="0" shadow="0">
      <root>
        <mxCell id="WIyWlLk6GJQsqaUBKTNV-0" />
        <mxCell id="WIyWlLk6GJQsqaUBKTNV-1" parent="WIyWlLk6GJQsqaUBKTNV-0" />
        <mxCell id="JFruLzJu_QoJoeAX95RD-6" value="" style="edgeStyle=orthogonalEdgeStyle;rounded=0;orthogonalLoop=1;jettySize=auto;html=1;" edge="1" parent="WIyWlLk6GJQsqaUBKTNV-1" source="WIyWlLk6GJQsqaUBKTNV-3" target="WIyWlLk6GJQsqaUBKTNV-6">
          <mxGeometry relative="1" as="geometry" />
        </mxCell>
        <mxCell id="WIyWlLk6GJQsqaUBKTNV-3" value="操作员输入信息" style="rounded=1;whiteSpace=wrap;html=1;fontSize=12;glass=0;strokeWidth=1;shadow=0;" parent="WIyWlLk6GJQsqaUBKTNV-1" vertex="1">
          <mxGeometry x="160" y="80" width="120" height="40" as="geometry" />
        </mxCell>
        <mxCell id="JFruLzJu_QoJoeAX95RD-4" value="" style="edgeStyle=orthogonalEdgeStyle;rounded=0;orthogonalLoop=1;jettySize=auto;html=1;" edge="1" parent="WIyWlLk6GJQsqaUBKTNV-1" source="WIyWlLk6GJQsqaUBKTNV-6" target="JFruLzJu_QoJoeAX95RD-1">
          <mxGeometry relative="1" as="geometry" />
        </mxCell>
        <mxCell id="JFruLzJu_QoJoeAX95RD-8" value="有效" style="edgeLabel;html=1;align=center;verticalAlign=middle;resizable=0;points=[];" vertex="1" connectable="0" parent="JFruLzJu_QoJoeAX95RD-4">
          <mxGeometry x="-0.5214" y="1" relative="1" as="geometry">
            <mxPoint as="offset" />
          </mxGeometry>
        </mxCell>
        <mxCell id="JFruLzJu_QoJoeAX95RD-5" value="" style="edgeStyle=orthogonalEdgeStyle;rounded=0;orthogonalLoop=1;jettySize=auto;html=1;" edge="1" parent="WIyWlLk6GJQsqaUBKTNV-1" source="WIyWlLk6GJQsqaUBKTNV-6" target="WIyWlLk6GJQsqaUBKTNV-7">
          <mxGeometry relative="1" as="geometry" />
        </mxCell>
        <mxCell id="JFruLzJu_QoJoeAX95RD-7" value="否" style="edgeLabel;html=1;align=center;verticalAlign=middle;resizable=0;points=[];" vertex="1" connectable="0" parent="JFruLzJu_QoJoeAX95RD-5">
          <mxGeometry x="-0.08" y="1" relative="1" as="geometry">
            <mxPoint as="offset" />
          </mxGeometry>
        </mxCell>
        <mxCell id="JFruLzJu_QoJoeAX95RD-9" value="无效" style="edgeLabel;html=1;align=center;verticalAlign=middle;resizable=0;points=[];" vertex="1" connectable="0" parent="JFruLzJu_QoJoeAX95RD-5">
          <mxGeometry x="-0.08" y="1" relative="1" as="geometry">
            <mxPoint as="offset" />
          </mxGeometry>
        </mxCell>
        <mxCell id="WIyWlLk6GJQsqaUBKTNV-6" value="检查信息有效性" style="rhombus;whiteSpace=wrap;html=1;shadow=0;fontFamily=Helvetica;fontSize=12;align=center;strokeWidth=1;spacing=6;spacingTop=-4;" parent="WIyWlLk6GJQsqaUBKTNV-1" vertex="1">
          <mxGeometry x="170" y="170" width="100" height="80" as="geometry" />
        </mxCell>
        <mxCell id="WIyWlLk6GJQsqaUBKTNV-7" value="放弃输入" style="rounded=1;whiteSpace=wrap;html=1;fontSize=12;glass=0;strokeWidth=1;shadow=0;" parent="WIyWlLk6GJQsqaUBKTNV-1" vertex="1">
          <mxGeometry x="330" y="190" width="120" height="40" as="geometry" />
        </mxCell>
        <mxCell id="JFruLzJu_QoJoeAX95RD-11" value="" style="edgeStyle=orthogonalEdgeStyle;rounded=0;orthogonalLoop=1;jettySize=auto;html=1;entryX=0;entryY=0.5;entryDx=0;entryDy=0;" edge="1" parent="WIyWlLk6GJQsqaUBKTNV-1" source="WIyWlLk6GJQsqaUBKTNV-10" target="JFruLzJu_QoJoeAX95RD-13">
          <mxGeometry relative="1" as="geometry">
            <mxPoint x="330" y="390" as="targetPoint" />
          </mxGeometry>
        </mxCell>
        <mxCell id="JFruLzJu_QoJoeAX95RD-12" value="不许可" style="edgeLabel;html=1;align=center;verticalAlign=middle;resizable=0;points=[];" vertex="1" connectable="0" parent="JFruLzJu_QoJoeAX95RD-11">
          <mxGeometry x="-0.1905" y="-1" relative="1" as="geometry">
            <mxPoint as="offset" />
          </mxGeometry>
        </mxCell>
        <mxCell id="JFruLzJu_QoJoeAX95RD-18" value="" style="edgeStyle=orthogonalEdgeStyle;rounded=0;orthogonalLoop=1;jettySize=auto;html=1;" edge="1" parent="WIyWlLk6GJQsqaUBKTNV-1" source="WIyWlLk6GJQsqaUBKTNV-10" target="JFruLzJu_QoJoeAX95RD-14">
          <mxGeometry relative="1" as="geometry" />
        </mxCell>
        <mxCell id="JFruLzJu_QoJoeAX95RD-22" value="许可" style="edgeLabel;html=1;align=center;verticalAlign=middle;resizable=0;points=[];" vertex="1" connectable="0" parent="JFruLzJu_QoJoeAX95RD-18">
          <mxGeometry x="-0.1371" y="1" relative="1" as="geometry">
            <mxPoint as="offset" />
          </mxGeometry>
        </mxCell>
        <mxCell id="WIyWlLk6GJQsqaUBKTNV-10" value="获取上级核准" style="rhombus;whiteSpace=wrap;html=1;shadow=0;fontFamily=Helvetica;fontSize=12;align=center;strokeWidth=1;spacing=6;spacingTop=-4;" parent="WIyWlLk6GJQsqaUBKTNV-1" vertex="1">
          <mxGeometry x="170" y="360" width="100" height="60" as="geometry" />
        </mxCell>
        <mxCell id="WIyWlLk6GJQsqaUBKTNV-11" value="结束" style="rounded=1;whiteSpace=wrap;html=1;fontSize=12;glass=0;strokeWidth=1;shadow=0;" parent="WIyWlLk6GJQsqaUBKTNV-1" vertex="1">
          <mxGeometry x="160" y="540" width="120" height="40" as="geometry" />
        </mxCell>
        <mxCell id="JFruLzJu_QoJoeAX95RD-3" value="" style="edgeStyle=orthogonalEdgeStyle;rounded=0;orthogonalLoop=1;jettySize=auto;html=1;" edge="1" parent="WIyWlLk6GJQsqaUBKTNV-1" source="JFruLzJu_QoJoeAX95RD-1" target="WIyWlLk6GJQsqaUBKTNV-10">
          <mxGeometry relative="1" as="geometry" />
        </mxCell>
        <mxCell id="JFruLzJu_QoJoeAX95RD-1" value="记录信息" style="rounded=0;whiteSpace=wrap;html=1;" vertex="1" parent="WIyWlLk6GJQsqaUBKTNV-1">
          <mxGeometry x="160" y="290" width="120" height="30" as="geometry" />
        </mxCell>
        <mxCell id="JFruLzJu_QoJoeAX95RD-21" style="edgeStyle=orthogonalEdgeStyle;rounded=0;orthogonalLoop=1;jettySize=auto;html=1;entryX=1;entryY=0.5;entryDx=0;entryDy=0;" edge="1" parent="WIyWlLk6GJQsqaUBKTNV-1" source="JFruLzJu_QoJoeAX95RD-13" target="WIyWlLk6GJQsqaUBKTNV-11">
          <mxGeometry relative="1" as="geometry">
            <mxPoint x="400" y="550" as="targetPoint" />
            <Array as="points">
              <mxPoint x="400" y="560" />
            </Array>
          </mxGeometry>
        </mxCell>
        <mxCell id="JFruLzJu_QoJoeAX95RD-13" value="删除信息" style="rounded=0;whiteSpace=wrap;html=1;" vertex="1" parent="WIyWlLk6GJQsqaUBKTNV-1">
          <mxGeometry x="340" y="370" width="120" height="35" as="geometry" />
        </mxCell>
        <mxCell id="JFruLzJu_QoJoeAX95RD-19" value="" style="edgeStyle=orthogonalEdgeStyle;rounded=0;orthogonalLoop=1;jettySize=auto;html=1;" edge="1" parent="WIyWlLk6GJQsqaUBKTNV-1" source="JFruLzJu_QoJoeAX95RD-14" target="WIyWlLk6GJQsqaUBKTNV-11">
          <mxGeometry relative="1" as="geometry" />
        </mxCell>
        <mxCell id="JFruLzJu_QoJoeAX95RD-14" value="保存到数据库" style="rounded=0;whiteSpace=wrap;html=1;" vertex="1" parent="WIyWlLk6GJQsqaUBKTNV-1">
          <mxGeometry x="160" y="470" width="120" height="35" as="geometry" />
        </mxCell>
      </root>
    </mxGraphModel>
  </diagram>
</mxfile>
